<svg xmlns="http://www.w3.org/2000/svg" xmlns:svg="http://www.w3.org/2000/svg" id="svg2" width="210mm" height="169mm" version="1.1" viewBox="0 0 744.094 598.819"><metadata id="metadata7"/><g id="layer1" display="inline" transform="translate(0,-453.5436)"><path id="path3403" fill="#fff" stroke-dasharray="none" stroke-miterlimit="4" stroke-width="1.875" d="m 46.284059,572.19542 c 6.434042,-6.70967 76.933401,-77.21338 86.596101,-86.60142 l 7.11063,-6.90859 v 49.44566 49.44567 H 90.557281 41.123805 Z"/><path id="path3405" fill="#fff" stroke-dasharray="none" stroke-miterlimit="4" stroke-width="1.875" d="m 247.72389,570.39501 c -2.65219,-3.37104 -5.45725,-6.91048 -6.23344,-7.8654 -0.77624,-0.9549 -2.68093,-3.55923 -4.23275,-5.78735 -1.55181,-2.22814 -3.10823,-4.31159 -3.45884,-4.6299 -0.35062,-0.31829 -2.97869,-3.70389 -5.84023,-7.52355 -2.86153,-3.81966 -5.48961,-7.20525 -5.84021,-7.52357 -0.35061,-0.31829 -1.88939,-2.40176 -3.41953,-4.62989 -1.53015,-2.22812 -3.09275,-4.31158 -3.47242,-4.62988 -0.37967,-0.3183 -1.95601,-2.40175 -3.50299,-4.62989 -1.54699,-2.22814 -3.99601,-5.24676 -5.44228,-6.70807 -1.44617,-1.4613 -2.62941,-3.13043 -2.62941,-3.70916 0,-0.57874 -1.18334,-2.24788 -2.6295,-3.70918 -1.44629,-1.4613 -3.8952,-4.47994 -5.44229,-6.70807 -1.54699,-2.22813 -3.12335,-4.31158 -3.503,-4.62989 -0.37956,-0.3183 -1.94215,-2.40174 -3.47241,-4.62988 -1.53015,-2.22812 -3.09274,-4.31157 -3.47242,-4.62988 -0.37964,-0.31829 -1.94213,-2.40176 -3.4724,-4.62989 -1.53015,-2.22812 -3.06767,-4.31158 -3.41665,-4.62989 -0.34895,-0.31829 -1.34936,-1.49024 -2.22305,-2.6043 -1.51013,-1.92558 3.118,-2.02559 93.75376,-2.02559 h 95.34229 l -6.52735,6.07674 c -3.59007,3.34218 -10.30983,9.46232 -14.93274,13.60028 -4.62289,4.13796 -9.81896,8.82573 -11.54665,10.41724 -4.60646,4.24336 -22.80791,20.68515 -28.83026,26.04312 -2.86225,2.54642 -6.83341,6.19247 -8.82495,8.10228 -1.99144,1.90984 -5.40718,5.03502 -7.59028,6.94483 -12.40692,10.8535 -23.96866,21.19765 -26.52108,23.72817 -7.85053,7.78306 -7.25414,7.73953 -12.61892,0.92057 z"/><path id="path3407" fill="#fff" stroke-dasharray="none" stroke-miterlimit="4" stroke-width="1.875" d="m 491.76729,573.34382 c -2.17602,-1.78937 -4.21673,-3.52221 -4.53499,-3.85075 -0.4503,-0.46471 -13.94128,-12.58799 -23.84979,-21.43184 -0.71323,-0.63662 -3.58493,-3.24092 -6.38149,-5.78736 -2.79653,-2.54644 -9.50912,-8.53635 -14.91669,-13.31093 -5.4076,-4.77455 -11.13415,-9.98825 -12.72568,-11.58595 -1.59145,-1.59771 -5.7584,-5.24376 -9.25978,-8.1023 -3.50133,-2.85857 -8.71376,-7.54127 -11.58331,-10.40601 -2.86944,-2.86474 -9.11898,-8.59421 -13.88799,-12.73218 -10.79091,-9.36318 -11.56779,-10.09604 -11.56779,-10.9133 0,-0.36378 42.18991,-0.66142 93.75519,-0.66142 51.56536,0 93.75518,0.27871 93.75518,0.61933 0,0.34063 -3.25536,4.97016 -7.23414,10.28786 -3.97885,5.31769 -8.01552,10.83229 -8.97043,12.25468 -0.95491,1.4224 -2.27417,3.17341 -2.93176,3.89118 -0.65758,0.71774 -2.45549,3.12801 -3.99539,5.35616 -1.53991,2.22813 -3.1104,4.31158 -3.49007,4.62989 -0.37966,0.3183 -1.94226,2.40175 -3.4724,4.62987 -1.53025,2.22815 -3.09274,4.31159 -3.4724,4.6299 -0.37967,0.31829 -1.95028,2.40175 -3.49017,4.62989 -1.53991,2.22813 -3.44971,4.72117 -4.24417,5.5401 -0.79443,0.81892 -2.3562,3.03258 -3.47076,4.91925 -1.11445,1.88666 -2.43486,3.43029 -2.93413,3.43029 -0.49937,0 -0.90797,0.51491 -0.90797,1.14425 0,1.07468 -2.19831,4.10684 -5.49793,7.58328 -0.79578,0.8384 -1.44689,2.08243 -1.44689,2.76451 0,0.68208 -0.40853,1.24014 -0.9079,1.24014 -0.49936,0 -1.75559,1.43238 -2.79171,3.18306 -1.03612,1.75068 -2.84121,4.31112 -4.0113,5.68988 -5.41518,6.3806 -6.17872,7.43128 -6.17872,8.50238 0,0.62933 -0.4002,1.14423 -0.88941,1.14423 -0.48909,0 -1.70375,1.3422 -2.69911,2.98265 l -1.80981,2.98263 z"/><path id="path3409" fill="#fff" stroke-dasharray="none" stroke-miterlimit="4" stroke-width="1.875" d="m 606.45178,528.09996 v -49.47679 l 49.19254,49.1823 c 27.05586,27.05028 49.19252,49.31484 49.19252,49.47681 0,0.16201 -22.13666,0.29446 -49.19252,0.29446 h -49.19254 z"/><path id="path13" fill="#fff" stroke="#000" stroke-dasharray="none" stroke-linecap="butt" stroke-linejoin="miter" stroke-miterlimit="4" stroke-opacity="1" stroke-width="1.875" d="M 139.99079,478.68541 41.123805,577.57674 H 139.99079 Z"/><path id="path17" fill="#fff" stroke="#000" stroke-dasharray="none" stroke-linecap="butt" stroke-linejoin="miter" stroke-miterlimit="4" stroke-opacity="1" stroke-width="1.875" d="m 174.1622,475.42072 80.36761,102.26636 110.58631,-103.1253 z"/><path id="path19" fill="#fff" stroke="#000" stroke-dasharray="none" stroke-linecap="butt" stroke-linejoin="miter" stroke-miterlimit="4" stroke-opacity="1" stroke-width="1.875" d="M 380.54976,473.88811 495.72358,576.59719 572.36302,474.57561 Z"/><path id="path21" fill="#fff" stroke="#000" stroke-dasharray="none" stroke-linecap="butt" stroke-linejoin="miter" stroke-miterlimit="4" stroke-opacity="1" stroke-width="1.875" d="m 606.45178,478.62317 v 98.95357 l 97.91177,-0.56319 z"/><path id="path25" fill="#fff" stroke="#000" stroke-dasharray="none" stroke-linecap="butt" stroke-linejoin="miter" stroke-miterlimit="4" stroke-opacity="1" stroke-width="1.875" d="M 9.8480159,612.58029 373.16883,1040.932 738.08179,613.55222 Z m 240.6372241,39.8725 245.50055,0.9719 -122.79633,295.12963 z"/></g></svg>