<svg xmlns="http://www.w3.org/2000/svg" xmlns:svg="http://www.w3.org/2000/svg" id="svg4" width="512" height="512" version="1.1" viewBox="0 0 512 512"><path style="fill:#000;fill-opacity:1;stroke:#000;stroke-width:.994742;stroke-linecap:butt;stroke-linejoin:miter;stroke-miterlimit:4;stroke-dasharray:0,10.9422;stroke-dashoffset:0;stroke-opacity:1" id="path2742-2" d="m 50.359709,215.84626 c 0,0 80.948101,-94.02561 80.948101,-94.02561 0,0 0.8551,122.40528 0.8551,122.40528 0,0 -81.803201,-28.37967 -81.803201,-28.37967 z"/><path style="fill:#000;fill-opacity:1;stroke:#000;stroke-width:1;stroke-linecap:butt;stroke-linejoin:miter;stroke-miterlimit:4;stroke-dasharray:0,11;stroke-dashoffset:0;stroke-opacity:1" id="path2939-7" d="m 56.126309,245.33533 c 0,0 76.188701,25.14292 76.188701,25.14292 0,0 -0.3982,76.65607 -0.3982,76.65607 0,0 -75.790501,-101.79899 -75.790501,-101.79899 z"/><path style="fill:#000;fill-opacity:1;stroke:#000;stroke-width:1;stroke-linecap:butt;stroke-linejoin:miter;stroke-miterlimit:4;stroke-dasharray:0,11;stroke-dashoffset:0;stroke-opacity:1" id="path2943-0" d="m 191.85831,146.07038 c 0,0 84.5277,26.82129 84.5277,26.82129 0,0 0,238.14056 0,238.14056 0,0 -84.5277,-29.25959 -84.5277,-29.25959 0,0 0,-235.70226 0,-235.70226 z"/><path style="fill:#000;fill-opacity:1;stroke:#000;stroke-width:1;stroke-linecap:butt;stroke-linejoin:miter;stroke-miterlimit:4;stroke-dasharray:0,11;stroke-dashoffset:0;stroke-opacity:1" id="path2959-9" d="m 199.98591,128.18952 c 0,0 74.77456,-93.46814 74.77456,-93.46814 0,0 73.14896,88.59154 73.14896,88.59154 0,0 -61.77023,30.88512 -61.77023,30.88512 0,0 -86.15329,-26.00852 -86.15329,-26.00852 z"/><path style="fill:#000;fill-opacity:1;stroke:#000;stroke-width:1;stroke-linecap:butt;stroke-linejoin:miter;stroke-miterlimit:4;stroke-dasharray:0,11;stroke-dashoffset:0;stroke-opacity:1" id="path2963-3" d="m 330.84136,18.46605 c 0,0 0.81276,56.08088 0.81276,56.08088 0,0 45.51491,56.08089 45.51491,56.08089 0,0 0.8128,60.14471 0.8128,60.14471 0,0 39.0128,-58.51918 39.0128,-58.51918 0,0 -86.15327,-113.7873 -86.15327,-113.7873 z"/><path style="fill:#000;fill-opacity:1;stroke:#000;stroke-width:1;stroke-linecap:butt;stroke-linejoin:miter;stroke-miterlimit:4;stroke-dasharray:0,11;stroke-dashoffset:0;stroke-opacity:1" id="path2967-6" d="m 386.77853,246.52098 c 0,0 0,150.36179 0,150.36179 0,0 80.4639,-11.37873 80.4639,-11.37873 0,0 -80.4639,-138.98306 -80.4639,-138.98306 z"/><path style="fill:#000;fill-opacity:1;stroke:#000;stroke-width:1;stroke-linecap:butt;stroke-linejoin:miter;stroke-miterlimit:4;stroke-dasharray:0,11;stroke-dashoffset:0;stroke-opacity:1" id="path2971-0" d="m 385.96583,417.20193 c 0,0 0.8127,46.32768 0.8127,46.32768 0,0 70.7107,-56.89365 70.7107,-56.89365"/><path style="fill:#000;fill-opacity:1;stroke:#000;stroke-width:1;stroke-linecap:butt;stroke-linejoin:miter;stroke-miterlimit:4;stroke-dasharray:0,11;stroke-dashoffset:0;stroke-opacity:1" id="path2975-6" d="m 457.48923,406.63596 c 0,0 -71.5234,10.56597 -71.5234,10.56597"/><path style="fill:#000;fill-opacity:1;stroke:#000;stroke-width:1;stroke-linecap:butt;stroke-linejoin:miter;stroke-miterlimit:4;stroke-dasharray:0,11;stroke-dashoffset:0;stroke-opacity:1" id="path2979-2" d="m 203.67531,405.34286 c 0,0 84.90219,30.07236 84.90219,30.07236 0,0 56.89263,-27.57129 56.89263,-27.57129 0,0 -71.52242,77.15004 -71.52242,77.15004 0,0 -70.2724,-79.65111 -70.2724,-79.65111 z"/><path style="fill:#000;fill-opacity:1;stroke:#000;stroke-width:1;stroke-linecap:butt;stroke-linejoin:miter;stroke-miterlimit:4;stroke-dasharray:0,11;stroke-dashoffset:0;stroke-opacity:1" id="path3372-6" d="m 294.51944,408.88614 c 0,0 60.34479,-28.73563 60.34479,-28.73563 0,0 0,-236.2069 0,-236.2069 0,0 -60.91951,27.58621 -60.91951,27.58621 0,0 0.57472,237.35632 0.57472,237.35632 z"/></svg>