<svg xmlns="http://www.w3.org/2000/svg" xmlns:svg="http://www.w3.org/2000/svg" id="svg4" width="512" height="512" version="1.1" viewBox="0 0 512 512"><path style="fill:#0057b7;fill-opacity:1;stroke:none;stroke-width:.994742;stroke-linecap:butt;stroke-linejoin:miter;stroke-miterlimit:4;stroke-dasharray:0,10.9422;stroke-dashoffset:0;stroke-opacity:1" id="path2742" d="m 39.748362,224.2015 c 0,0 80.948098,-94.02561 80.948098,-94.02561 0,0 0.85508,122.40528 0.85508,122.40528 0,0 -81.803178,-28.37967 -81.803178,-28.37967 z"/><path style="fill:gold;fill-opacity:1;stroke:none;stroke-width:1;stroke-linecap:butt;stroke-linejoin:miter;stroke-miterlimit:4;stroke-dasharray:0,11;stroke-dashoffset:0;stroke-opacity:1" id="path2939" d="m 45.514919,253.69057 c 0,0 76.188721,25.14292 76.188721,25.14292 0,0 -0.39825,76.65607 -0.39825,76.65607 0,0 -75.790471,-101.79899 -75.790471,-101.79899 z"/><path style="fill:#0057b7;fill-opacity:1;stroke:none;stroke-width:1;stroke-linecap:butt;stroke-linejoin:miter;stroke-miterlimit:4;stroke-dasharray:0,11;stroke-dashoffset:0;stroke-opacity:1" id="path2959" d="m 189.37457,136.54476 c 0,0 74.77451,-93.46814 74.77451,-93.46814 0,0 73.14898,88.59154 73.14898,88.59154 0,0 -61.77025,30.88512 -61.77025,30.88512 0,0 -86.15324,-26.00852 -86.15324,-26.00852 z"/><path style="fill:#0057b7;fill-opacity:1;stroke:none;stroke-width:1;stroke-linecap:butt;stroke-linejoin:miter;stroke-miterlimit:4;stroke-dasharray:0,11;stroke-dashoffset:0;stroke-opacity:1" id="path2963" d="m 320.22997,26.821292 c 0,0 0.81276,56.080882 0.81276,56.080882 0,0 45.51492,56.080886 45.51492,56.080886 0,0 0.81277,60.14471 0.81277,60.14471 0,0 39.01279,-58.51918 39.01279,-58.51918 0,0 -86.15324,-113.787298 -86.15324,-113.787298 z"/><path style="fill:#000;fill-opacity:1;stroke:none;stroke-width:1;stroke-linecap:butt;stroke-linejoin:miter;stroke-miterlimit:4;stroke-dasharray:0,11;stroke-dashoffset:0;stroke-opacity:1" id="path2967" d="m 376.16717,254.87622 c 0,0 0,150.36179 0,150.36179 0,0 80.46387,-11.37873 80.46387,-11.37873 0,0 -80.46387,-138.98306 -80.46387,-138.98306 z"/><path style="fill:#000;fill-opacity:1;stroke:none;stroke-width:1;stroke-linecap:butt;stroke-linejoin:miter;stroke-miterlimit:4;stroke-dasharray:0,11;stroke-dashoffset:0;stroke-opacity:1" id="path2971" d="m 375.3544,425.55717 c 0,0 0.81277,46.32768 0.81277,46.32768 0,0 70.71068,-56.89365 70.71068,-56.89365"/><path style="fill:#000;fill-opacity:1;stroke:none;stroke-width:1;stroke-linecap:butt;stroke-linejoin:miter;stroke-miterlimit:4;stroke-dasharray:0,11;stroke-dashoffset:0;stroke-opacity:1" id="path2975" d="m 446.87785,414.9912 c 0,0 -71.52345,10.56597 -71.52345,10.56597"/><path style="fill:#000;fill-opacity:1;stroke:none;stroke-width:1;stroke-linecap:butt;stroke-linejoin:miter;stroke-miterlimit:4;stroke-dasharray:0,11;stroke-dashoffset:0;stroke-opacity:1" id="path2979" d="m 193.06394,413.6981 c 0,0 84.90217,30.07236 84.90217,30.07236 0,0 56.89259,-27.57129 56.89259,-27.57129 0,0 -71.52238,77.15004 -71.52238,77.15004 0,0 -70.27238,-79.65111 -70.27238,-79.65111 z"/><path style="fill:gold;fill-opacity:1;stroke:none;stroke-width:1;stroke-linecap:butt;stroke-linejoin:miter;stroke-miterlimit:4;stroke-dasharray:0,11;stroke-dashoffset:0;stroke-opacity:1" id="path3372" d="m 283.90805,417.24138 c 0,0 60.34482,-28.73563 60.34482,-28.73563 0,0 0,-135.00797 0,-135.00797 0,0 -60.91954,-0.17678 -60.91954,-0.17678 0,0 0.57472,163.92038 0.57472,163.92038 z"/><path style="fill:gold;fill-opacity:1;stroke:none;stroke-width:1;stroke-linecap:butt;stroke-linejoin:miter;stroke-miterlimit:4;stroke-dasharray:0,11;stroke-dashoffset:0;stroke-opacity:1" id="path2939-7-2-6" d="m 45.51492,253.69061 c 0,0 76.1887,25.1429 76.1887,25.1429 0,0 -0.3982,76.6561 -0.3982,76.6561 0,0 -75.7905,-101.799 -75.7905,-101.799 z"/><path style="fill:#0057b7;fill-opacity:1;stroke:none;stroke-width:1;stroke-linecap:butt;stroke-linejoin:miter;stroke-miterlimit:4;stroke-dasharray:0,11;stroke-dashoffset:0;stroke-opacity:1" id="path2959-9-8-0" d="m 189.37452,136.54476 c 0,0 74.77456,-93.46814 74.77456,-93.46814 0,0 73.14896,88.59154 73.14896,88.59154 0,0 -61.77023,30.88512 -61.77023,30.88512 0,0 -86.15329,-26.00852 -86.15329,-26.00852 z"/><path style="fill:#0057b7;fill-opacity:1;stroke:none;stroke-width:1;stroke-linecap:butt;stroke-linejoin:miter;stroke-miterlimit:4;stroke-dasharray:0,11;stroke-dashoffset:0;stroke-opacity:1" id="path2963-3-9-6" d="m 320.22997,26.82129 c 0,0 0.81276,56.08088 0.81276,56.08088 0,0 45.51491,56.08089 45.51491,56.08089 0,0 0.8128,60.14471 0.8128,60.14471 0,0 39.0128,-58.51918 39.0128,-58.51918 0,0 -86.15327,-113.7873 -86.15327,-113.7873 z"/><path style="fill:gold;fill-opacity:1;stroke:none;stroke-width:1;stroke-linecap:butt;stroke-linejoin:miter;stroke-miterlimit:4;stroke-dasharray:0,11;stroke-dashoffset:0;stroke-opacity:1" id="path2967-6-7-3" d="m 376.16714,254.87621 c 0,0 0,150.3618 0,150.3618 0,0 80.4639,-11.3787 80.4639,-11.3787 0,0 -80.4639,-138.9831 -80.4639,-138.9831 z"/><path style="fill:gold;fill-opacity:1;stroke:none;stroke-width:1;stroke-linecap:butt;stroke-linejoin:miter;stroke-miterlimit:4;stroke-dasharray:0,11;stroke-dashoffset:0;stroke-opacity:1" id="path2971-0-3-2" d="m 375.35444,425.55721 c 0,0 0.8127,46.3276 0.8127,46.3276 0,0 70.7107,-56.8936 70.7107,-56.8936"/><path style="fill:#000;fill-opacity:1;stroke:none;stroke-width:1;stroke-linecap:butt;stroke-linejoin:miter;stroke-miterlimit:4;stroke-dasharray:0,11;stroke-dashoffset:0;stroke-opacity:1" id="path2975-6-6-0" d="m 446.87784,414.99121 c 0,0 -71.5234,10.566 -71.5234,10.566"/><path style="fill:gold;fill-opacity:1;stroke:none;stroke-width:1;stroke-linecap:butt;stroke-linejoin:miter;stroke-miterlimit:4;stroke-dasharray:0,11;stroke-dashoffset:0;stroke-opacity:1" id="path2979-2-1-6" d="m 193.06392,413.69811 c 0,0 84.90219,30.0724 84.90219,30.0724 0,0 56.89263,-27.5713 56.89263,-27.5713 0,0 -71.52242,77.15 -71.52242,77.15 0,0 -70.2724,-79.6511 -70.2724,-79.6511 z"/><path style="fill:#0057b7;stroke:none;stroke-width:1px;stroke-linecap:butt;stroke-linejoin:miter;stroke-opacity:1;fill-opacity:1" id="path6302" d="m 181.24691,154.42562 c 0,0 84.52771,26.82129 84.52771,26.82129 0,0 -0.0793,72.42765 -0.0793,72.42765 0,0 -84.67598,0 -84.67598,0"/><path style="fill:#0057b7;stroke:none;stroke-width:1px;stroke-linecap:butt;stroke-linejoin:miter;stroke-opacity:1;fill-opacity:1" id="path6511" d="m 344.25287,253.49778 c 0,0 0,-101.19893 0,-101.19893 0,0 -60.91954,27.58621 -60.91954,27.58621 0,0 0,73.43594 0,73.43594 0,0 60.91954,0.17678 60.91954,0.17678 z"/><path style="fill:gold;stroke:none;stroke-width:1px;stroke-linecap:butt;stroke-linejoin:miter;stroke-opacity:1;fill-opacity:1" id="path9905" d="m 181.01934,253.67456 c 0,0 0.22756,136.45332 0.22756,136.45332 0,0 84.52772,29.25959 84.52772,29.25959 0,0 -0.0793,-165.71291 -0.0793,-165.71291 0,0 -84.67598,0 -84.67598,0 z"/></svg>